<svg width="20" height="20" viewBox="0 0 20 20" fill="none" xmlns="http://www.w3.org/2000/svg">
<path d="M10 10C10 8.83764 10.4145 7.84195 11.2436 7.01292C12.0726 6.18375 13.0684 5.76917 14.2309 5.76917C15.3932 5.76917 16.3889 6.18375 17.218 7.01292C18.047 7.84195 18.4615 8.83764 18.4615 10H10ZM5.7692 14.2308C4.60684 14.2308 3.61114 13.8163 2.78212 12.9871C1.95309 12.1581 1.53857 11.1624 1.53857 10H10C10 11.1624 9.58552 12.1581 8.75649 12.9871C7.92746 13.8163 6.9317 14.2308 5.7692 14.2308ZM10 10C8.83767 10 7.84198 9.58549 7.01295 8.75646C6.18378 7.92743 5.7692 6.93167 5.7692 5.76917C5.7692 4.60681 6.18378 3.61111 7.01295 2.78209C7.84198 1.95306 8.83767 1.53854 10 1.53854V10ZM10 18.4615V10C11.1624 10 12.1581 10.4145 12.9871 11.2435C13.8163 12.0726 14.2309 13.0683 14.2309 14.2308C14.2309 15.3932 13.8163 16.3889 12.9871 17.2179C12.1581 18.0469 11.1624 18.4615 10 18.4615Z" fill="#868092"/>
</svg>
