<svg width="16" height="16" viewBox="0 0 16 16" fill="none" xmlns="http://www.w3.org/2000/svg">
<g clip-path="url(#clip0_423_493)">
<path d="M16 6.66667V16H0V6.66667H16ZM16 5.33333V3.33333C16 2.8029 15.7893 2.29419 15.4142 1.91912C15.0391 1.54405 14.5304 1.33333 14 1.33333H12V0H10.6667V1.33333H5.33333V0H4V1.33333H2C1.46957 1.33333 0.960859 1.54405 0.585786 1.91912C0.210714 2.29419 0 2.8029 0 3.33333L0 5.33333H16ZM12 9.33333H10.6667V10.6667H12V9.33333ZM8.66667 9.33333H7.33333V10.6667H8.66667V9.33333ZM5.33333 9.33333H4V10.6667H5.33333V9.33333ZM12 12H10.6667V13.3333H12V12ZM8.66667 12H7.33333V13.3333H8.66667V12ZM5.33333 12H4V13.3333H5.33333V12Z" fill="white"/>
</g>
<defs>
<clipPath id="clip0_423_493">
<rect width="16" height="16" fill="white"/>
</clipPath>
</defs>
</svg>
