<svg width="20" height="20" viewBox="0 0 20 20" fill="none" xmlns="http://www.w3.org/2000/svg">
<path d="M5.34853 15.908C4.99741 15.908 4.70022 15.7863 4.45695 15.5431C4.21368 15.2998 4.09204 15.0026 4.09204 14.6515V5.34851C4.09204 4.99739 4.21368 4.70019 4.45695 4.45692C4.70022 4.21365 4.99741 4.09202 5.34853 4.09202H9.73259V5.1346H5.34853C5.29501 5.1346 5.24601 5.1569 5.20152 5.2015C5.15692 5.24598 5.13463 5.29499 5.13463 5.34851V14.6515C5.13463 14.705 5.15692 14.754 5.20152 14.7985C5.24601 14.8431 5.29501 14.8654 5.34853 14.8654H14.6515C14.705 14.8654 14.754 14.8431 14.7985 14.7985C14.8431 14.754 14.8654 14.705 14.8654 14.6515V10.2674H15.908V14.6515C15.908 15.0026 15.7864 15.2998 15.5431 15.5431C15.2998 15.7863 15.0026 15.908 14.6515 15.908H5.34853ZM8.41477 12.3177L7.68235 11.5852L14.133 5.1346H11.3901V4.09202H15.908V8.60988H14.8654V5.86702L8.41477 12.3177Z" fill="white"/>
</svg>
