<svg width="16" height="16" viewBox="0 0 16 16" fill="none" xmlns="http://www.w3.org/2000/svg">
<path d="M7.99983 2.66667C8.73621 2.66667 9.33317 2.06971 9.33317 1.33333C9.33317 0.596954 8.73621 0 7.99983 0C7.26346 0 6.6665 0.596954 6.6665 1.33333C6.6665 2.06971 7.26346 2.66667 7.99983 2.66667Z" fill="#8B8888"/>
<path d="M7.99983 9.33365C8.73621 9.33365 9.33317 8.7367 9.33317 8.00032C9.33317 7.26394 8.73621 6.66699 7.99983 6.66699C7.26346 6.66699 6.6665 7.26394 6.6665 8.00032C6.6665 8.7367 7.26346 9.33365 7.99983 9.33365Z" fill="#8B8888"/>
<path d="M7.99983 15.9997C8.73621 15.9997 9.33317 15.4027 9.33317 14.6663C9.33317 13.93 8.73621 13.333 7.99983 13.333C7.26346 13.333 6.6665 13.93 6.6665 14.6663C6.6665 15.4027 7.26346 15.9997 7.99983 15.9997Z" fill="#8B8888"/>
</svg>
