<svg width="24" height="24" viewBox="0 0 24 24" fill="none" xmlns="http://www.w3.org/2000/svg">
<g clip-path="url(#clip0_496_49)">
<path fill-rule="evenodd" clip-rule="evenodd" d="M15.0412 0.934222C15.4382 0.910373 15.9413 1.16843 16.3068 1.32387C16.8967 1.57469 17.7445 1.718 17.6974 2.53676C17.6866 2.72341 17.6362 2.9105 17.5968 3.09047L17.4132 3.91957C17.3667 4.1292 17.2995 4.39349 17.2941 4.60512C17.2902 4.73973 17.3113 4.87381 17.3566 5.00063C17.4859 5.36274 17.7997 5.55732 18.0675 5.82875C18.3095 6.05806 18.5091 6.34584 18.8156 6.49379C19.2031 6.68088 19.6047 6.54831 19.9943 6.45571L20.8429 6.25453C21.1858 6.17403 21.5001 6.07289 21.8361 6.24282C21.9688 6.3095 22.0815 6.40991 22.1632 6.53383C22.3136 6.75811 22.4678 7.20688 22.5705 7.44692C22.9932 8.43501 23.4308 9.00909 22.2463 9.66567C22.0342 9.78315 21.1619 10.3405 20.9865 10.5016C20.8897 10.5899 20.8093 10.6948 20.7492 10.8112C20.5619 11.1747 20.6509 11.5335 20.6564 11.9332C20.6602 12.2241 20.6022 12.6002 20.6906 12.8717C20.8405 13.3322 21.1506 13.4594 21.4953 13.6881C21.7906 13.8842 22.6081 14.332 22.8146 14.5426C22.9169 14.646 22.9919 14.7733 23.0334 14.9127C23.0718 15.0448 23.0785 15.185 23.0519 15.32C22.9935 15.6049 22.7664 16.0905 22.6496 16.3756C22.5032 16.7323 22.3353 17.306 22.0314 17.5387C21.7111 17.7837 21.3241 17.6926 20.967 17.6139L20.09 17.4196C19.8895 17.3751 19.6389 17.3111 19.4386 17.2995C19.3155 17.2923 19.1919 17.3044 19.0724 17.3346C18.711 17.423 18.4463 17.785 18.1974 18.0436C17.9703 18.2796 17.6846 18.4859 17.5285 18.7731C17.2662 19.2458 17.5057 19.7155 17.5861 20.1852C17.6768 20.7144 18.0268 21.4219 17.7179 21.9079C17.6491 22.0166 17.5571 22.1086 17.4484 22.1774C17.2368 22.3093 15.7006 22.9631 15.4826 23.0055C14.8786 23.1229 14.6132 22.6867 14.338 22.2555C14.0998 21.8822 13.6228 21.0287 13.2931 20.8131C13.168 20.7313 13.0207 20.6763 12.8732 20.653C12.6128 20.6115 12.3334 20.659 12.0705 20.6618C11.7879 20.6646 11.4916 20.6147 11.213 20.6754C11.023 20.7177 10.8486 20.812 10.7082 20.9469C10.5257 21.1211 10.3684 21.4162 10.2316 21.6344C10.0353 21.9478 9.8459 22.2707 9.6486 22.5836C9.47592 22.8576 9.2993 22.9928 8.98356 23.0631C8.545 23.1114 8.04071 22.8059 7.63102 22.651C7.36747 22.5515 6.97993 22.4159 6.74235 22.2809C6.20151 21.9733 6.2779 21.4801 6.39078 20.9704L6.58414 20.1022C6.62913 19.8999 6.69286 19.6372 6.70426 19.4352C6.71222 19.3122 6.69954 19.1887 6.66617 19.07C6.55419 18.6734 6.23572 18.475 5.95524 18.195C5.58717 17.8273 5.29744 17.3916 4.71696 17.4118C4.46859 17.4205 4.29682 17.4956 4.07438 17.5299C3.62548 17.599 2.94101 17.8731 2.50992 17.8512C2.36918 17.8438 2.23197 17.8027 2.11051 17.7311C1.99657 17.6633 1.90002 17.5689 1.82926 17.4567C1.73571 17.3083 1.05057 15.6919 1.00699 15.5104C0.945215 15.248 1.01013 14.9712 1.1818 14.7633C1.30941 14.6075 1.51786 14.4863 1.68766 14.3776L2.48649 13.8678C2.64849 13.7643 2.81176 13.6691 2.96012 13.5504C3.43772 13.1678 3.37973 12.6598 3.34781 12.11C3.32892 11.7845 3.40901 11.4446 3.30582 11.1256C3.25198 10.9607 3.1591 10.8106 3.03629 10.6881C2.72818 10.381 2.05532 10.0751 1.68375 9.80825C1.36059 9.57624 1.06052 9.49719 0.95426 9.04848C0.923952 8.91893 0.92425 8.78358 0.95426 8.65395C1.01292 8.40373 1.63535 6.89698 1.75504 6.69399C2.30949 5.75661 3.95801 6.86813 4.85856 6.68422C5.00507 6.65472 5.14357 6.59266 5.26285 6.50258C5.44559 6.36718 5.6637 6.09769 5.83414 5.92348C6.00582 5.74803 6.30028 5.50751 6.42301 5.31508C6.5261 5.15429 6.58448 4.96888 6.59098 4.77797C6.60096 4.46908 6.48605 4.23247 6.44352 3.94692C6.35828 3.37391 5.94669 2.58978 6.29996 2.06899C6.36949 1.96599 6.45934 1.87814 6.56461 1.81215C6.68957 1.73506 7.15097 1.54671 7.31364 1.48403C7.6118 1.36906 8.25039 1.04703 8.53824 0.994769C8.78217 0.950258 9.03328 1.01516 9.22574 1.17153C9.48797 1.38168 9.70939 1.85757 9.91129 2.13637C10.149 2.46445 10.35 2.94389 10.6886 3.17641C10.8147 3.26389 10.9583 3.32338 11.1095 3.34926C11.3454 3.38997 11.6994 3.33995 11.9513 3.34047C12.1945 3.34102 12.5367 3.37693 12.7629 3.33266C12.9598 3.29215 13.1419 3.19803 13.2882 3.0602C13.4777 2.88225 13.6098 2.61949 13.7492 2.39809C13.9647 2.05558 14.1729 1.69733 14.3947 1.35903C14.5533 1.11689 14.7583 0.987188 15.0412 0.934222ZM11.9992 8.48207C10.0561 8.48214 8.48063 10.0576 8.48063 12.0006C8.48069 13.9436 10.0561 15.5191 11.9992 15.5192C13.9423 15.5192 15.5177 13.9437 15.5177 12.0006C15.5177 10.0576 13.9424 8.48207 11.9992 8.48207Z" fill="#374957"/>
</g>
<defs>
<clipPath id="clip0_496_49">
<rect width="24" height="24" fill="white"/>
</clipPath>
</defs>
</svg>
