<svg width="16" height="16" viewBox="0 0 16 16" fill="none" xmlns="http://www.w3.org/2000/svg">
<g clip-path="url(#clip0_191_2136)">
<path d="M16 14.75C16 15.4404 15.4404 16 14.75 16H1.25C0.559625 16 0 15.4404 0 14.75V1.25C0 0.559625 0.559625 0 1.25 0H14.75C15.4404 0 16 0.559625 16 1.25V14.75Z" fill="#FFDB12"/>
<path d="M8 2.25C4.41013 2.25 1.5 4.54456 1.5 7.375C1.5 9.20494 2.71663 10.8106 4.54675 11.7173C4.44719 12.0607 3.90694 13.9263 3.88544 14.0729C3.88544 14.0729 3.8725 14.183 3.94381 14.225C4.01513 14.267 4.099 14.2344 4.099 14.2344C4.3035 14.2058 6.47044 12.6837 6.8455 12.4194C7.22019 12.4724 7.606 12.5 8 12.5C11.5899 12.5 14.5 10.2055 14.5 7.375C14.5 4.54456 11.5899 2.25 8 2.25Z" fill="#3C0404"/>
<path d="M4.40625 9.16406C4.19944 9.16406 4.03125 9.00344 4.03125 8.80594V6.57812H3.44613C3.24319 6.57812 3.07812 6.41338 3.07812 6.21094C3.07812 6.0085 3.24325 5.84375 3.44613 5.84375H5.36637C5.56931 5.84375 5.73438 6.0085 5.73438 6.21094C5.73438 6.41338 5.56925 6.57812 5.36637 6.57812H4.78125V8.80594C4.78125 9.00344 4.61306 9.16406 4.40625 9.16406ZM7.6945 9.15919C7.53813 9.15919 7.4185 9.09569 7.38244 8.99356L7.19675 8.50744L6.05325 8.50737L5.86744 8.99381C5.8315 9.09575 5.71194 9.15919 5.55556 9.15919C5.47331 9.15927 5.392 9.14162 5.31719 9.10744C5.21381 9.05975 5.11444 8.92863 5.22831 8.57494L6.12531 6.21394C6.1885 6.03437 6.38044 5.84937 6.62469 5.84381C6.86963 5.84931 7.06156 6.03438 7.12488 6.21431L8.0215 8.57425C8.13562 8.92875 8.03625 9.05994 7.93288 9.1075C7.85804 9.14162 7.77675 9.15925 7.6945 9.15919ZM6.99956 7.84319L6.625 6.77913L6.25044 7.84319H6.99956ZM8.625 9.10938C8.42681 9.10938 8.26562 8.95513 8.26562 8.76562V6.21875C8.26562 6.01194 8.43738 5.84375 8.64844 5.84375C8.8595 5.84375 9.03125 6.01194 9.03125 6.21875V8.42188H9.82812C10.0263 8.42188 10.1875 8.57612 10.1875 8.76562C10.1875 8.95513 10.0263 9.10938 9.82812 9.10938H8.625ZM10.7084 9.15919C10.5016 9.15919 10.3334 8.991 10.3334 8.78419V6.21875C10.3334 6.01194 10.5016 5.84375 10.7084 5.84375C10.9152 5.84375 11.0834 6.01194 11.0834 6.21875V7.02475L12.1296 5.9785C12.1834 5.92469 12.2574 5.89506 12.3376 5.89506C12.4312 5.89506 12.5253 5.93544 12.5957 6.00581C12.6614 6.07144 12.7006 6.15588 12.7059 6.24356C12.7114 6.332 12.6819 6.41306 12.6232 6.47188L11.7686 7.32631L12.6917 8.54919C12.7215 8.58842 12.7432 8.63318 12.7556 8.68087C12.7679 8.72856 12.7707 8.77823 12.7637 8.827C12.757 8.8758 12.7407 8.92279 12.7157 8.96524C12.6907 9.00769 12.6576 9.04477 12.6182 9.07431C12.5533 9.1236 12.4741 9.1502 12.3926 9.15C12.3345 9.15027 12.2772 9.13693 12.2251 9.11104C12.1731 9.08516 12.1279 9.04745 12.0931 9.00094L11.2136 7.83569L11.0835 7.96581V8.784C11.0834 8.88346 11.0438 8.97881 10.9735 9.04915C10.9032 9.11948 10.8078 9.15905 10.7084 9.15919Z" fill="#FFDB12"/>
</g>
<defs>
<clipPath id="clip0_191_2136">
<rect width="16" height="16" fill="white"/>
</clipPath>
</defs>
</svg>
