<svg width="20" height="20" viewBox="0 0 20 20" fill="none" xmlns="http://www.w3.org/2000/svg">
<path d="M4.99992 12.7083C4.72214 12.7083 4.47909 12.6042 4.27075 12.3958C4.06242 12.1875 3.95825 11.9445 3.95825 11.6667C3.95825 11.375 4.06242 11.1285 4.27075 10.9271C4.47909 10.7257 4.72214 10.625 4.99992 10.625C5.29159 10.625 5.53811 10.7257 5.7395 10.9271C5.94089 11.1285 6.04158 11.375 6.04158 11.6667C6.04158 11.9445 5.94089 12.1875 5.7395 12.3958C5.53811 12.6042 5.29159 12.7083 4.99992 12.7083ZM4.99992 6.04168C4.72214 6.04168 4.47909 5.93751 4.27075 5.72918C4.06242 5.52084 3.95825 5.27779 3.95825 5.00001C3.95825 4.70834 4.06242 4.46182 4.27075 4.26043C4.47909 4.05904 4.72214 3.95834 4.99992 3.95834C5.29159 3.95834 5.53811 4.05904 5.7395 4.26043C5.94089 4.46182 6.04158 4.70834 6.04158 5.00001C6.04158 5.27779 5.94089 5.52084 5.7395 5.72918C5.53811 5.93751 5.29159 6.04168 4.99992 6.04168ZM7.49992 16.0417C7.22214 16.0417 6.97908 15.9375 6.77075 15.7292C6.56242 15.5208 6.45825 15.2778 6.45825 15C6.45825 14.7083 6.56242 14.4618 6.77075 14.2604C6.97908 14.059 7.22214 13.9583 7.49992 13.9583C7.79158 13.9583 8.03811 14.059 8.2395 14.2604C8.44089 14.4618 8.54158 14.7083 8.54158 15C8.54158 15.2778 8.44089 15.5208 8.2395 15.7292C8.03811 15.9375 7.79158 16.0417 7.49992 16.0417ZM7.49992 9.37501C7.22214 9.37501 6.97908 9.27084 6.77075 9.06251C6.56242 8.85418 6.45825 8.61112 6.45825 8.33334C6.45825 8.04168 6.56242 7.79515 6.77075 7.59376C6.97908 7.39237 7.22214 7.29168 7.49992 7.29168C7.79158 7.29168 8.03811 7.39237 8.2395 7.59376C8.44089 7.79515 8.54158 8.04168 8.54158 8.33334C8.54158 8.61112 8.44089 8.85418 8.2395 9.06251C8.03811 9.27084 7.79158 9.37501 7.49992 9.37501ZM9.99992 12.7083C9.72214 12.7083 9.47908 12.6042 9.27075 12.3958C9.06242 12.1875 8.95825 11.9445 8.95825 11.6667C8.95825 11.375 9.06242 11.1285 9.27075 10.9271C9.47908 10.7257 9.72214 10.625 9.99992 10.625C10.2916 10.625 10.5381 10.7257 10.7395 10.9271C10.9409 11.1285 11.0416 11.375 11.0416 11.6667C11.0416 11.9445 10.9409 12.1875 10.7395 12.3958C10.5381 12.6042 10.2916 12.7083 9.99992 12.7083ZM9.99992 6.04168C9.72214 6.04168 9.47908 5.93751 9.27075 5.72918C9.06242 5.52084 8.95825 5.27779 8.95825 5.00001C8.95825 4.70834 9.06242 4.46182 9.27075 4.26043C9.47908 4.05904 9.72214 3.95834 9.99992 3.95834C10.2916 3.95834 10.5381 4.05904 10.7395 4.26043C10.9409 4.46182 11.0416 4.70834 11.0416 5.00001C11.0416 5.27779 10.9409 5.52084 10.7395 5.72918C10.5381 5.93751 10.2916 6.04168 9.99992 6.04168ZM12.4999 16.0417C12.2221 16.0417 11.9791 15.9375 11.7708 15.7292C11.5624 15.5208 11.4583 15.2778 11.4583 15C11.4583 14.7083 11.5624 14.4618 11.7708 14.2604C11.9791 14.059 12.2221 13.9583 12.4999 13.9583C12.7916 13.9583 13.0381 14.059 13.2395 14.2604C13.4409 14.4618 13.5416 14.7083 13.5416 15C13.5416 15.2778 13.4409 15.5208 13.2395 15.7292C13.0381 15.9375 12.7916 16.0417 12.4999 16.0417ZM12.4999 9.37501C12.2221 9.37501 11.9791 9.27084 11.7708 9.06251C11.5624 8.85418 11.4583 8.61112 11.4583 8.33334C11.4583 8.04168 11.5624 7.79515 11.7708 7.59376C11.9791 7.39237 12.2221 7.29168 12.4999 7.29168C12.7916 7.29168 13.0381 7.39237 13.2395 7.59376C13.4409 7.79515 13.5416 8.04168 13.5416 8.33334C13.5416 8.61112 13.4409 8.85418 13.2395 9.06251C13.0381 9.27084 12.7916 9.37501 12.4999 9.37501ZM14.9999 12.7083C14.7221 12.7083 14.4791 12.6042 14.2708 12.3958C14.0624 12.1875 13.9583 11.9445 13.9583 11.6667C13.9583 11.375 14.0624 11.1285 14.2708 10.9271C14.4791 10.7257 14.7221 10.625 14.9999 10.625C15.2916 10.625 15.5381 10.7257 15.7395 10.9271C15.9409 11.1285 16.0416 11.375 16.0416 11.6667C16.0416 11.9445 15.9409 12.1875 15.7395 12.3958C15.5381 12.6042 15.2916 12.7083 14.9999 12.7083ZM14.9999 6.04168C14.7221 6.04168 14.4791 5.93751 14.2708 5.72918C14.0624 5.52084 13.9583 5.27779 13.9583 5.00001C13.9583 4.70834 14.0624 4.46182 14.2708 4.26043C14.4791 4.05904 14.7221 3.95834 14.9999 3.95834C15.2916 3.95834 15.5381 4.05904 15.7395 4.26043C15.9409 4.46182 16.0416 4.70834 16.0416 5.00001C16.0416 5.27779 15.9409 5.52084 15.7395 5.72918C15.5381 5.93751 15.2916 6.04168 14.9999 6.04168Z" fill="#868092"/>
<path d="M5.00016 12.7083C4.72238 12.7083 4.47933 12.6041 4.271 12.3958C4.06266 12.1875 3.9585 11.9444 3.9585 11.6666C3.9585 11.375 4.06266 11.1285 4.271 10.9271C4.47933 10.7257 4.72238 10.625 5.00016 10.625C5.29183 10.625 5.53836 10.7257 5.73975 10.9271C5.94113 11.1285 6.04183 11.375 6.04183 11.6666C6.04183 11.9444 5.94113 12.1875 5.73975 12.3958C5.53836 12.6041 5.29183 12.7083 5.00016 12.7083ZM5.00016 6.04165C4.72238 6.04165 4.47933 5.93748 4.271 5.72915C4.06266 5.52081 3.9585 5.27776 3.9585 4.99998C3.9585 4.70831 4.06266 4.46179 4.271 4.2604C4.47933 4.05901 4.72238 3.95831 5.00016 3.95831C5.29183 3.95831 5.53836 4.05901 5.73975 4.2604C5.94113 4.46179 6.04183 4.70831 6.04183 4.99998C6.04183 5.27776 5.94113 5.52081 5.73975 5.72915C5.53836 5.93748 5.29183 6.04165 5.00016 6.04165ZM7.50016 16.0416C7.22238 16.0416 6.97933 15.9375 6.771 15.7291C6.56266 15.5208 6.4585 15.2778 6.4585 15C6.4585 14.7083 6.56266 14.4618 6.771 14.2604C6.97933 14.059 7.22238 13.9583 7.50016 13.9583C7.79183 13.9583 8.03836 14.059 8.23975 14.2604C8.44113 14.4618 8.54183 14.7083 8.54183 15C8.54183 15.2778 8.44113 15.5208 8.23975 15.7291C8.03836 15.9375 7.79183 16.0416 7.50016 16.0416ZM7.50016 9.37498C7.22238 9.37498 6.97933 9.27081 6.771 9.06248C6.56266 8.85415 6.4585 8.61109 6.4585 8.33331C6.4585 8.04165 6.56266 7.79512 6.771 7.59373C6.97933 7.39234 7.22238 7.29165 7.50016 7.29165C7.79183 7.29165 8.03836 7.39234 8.23975 7.59373C8.44113 7.79512 8.54183 8.04165 8.54183 8.33331C8.54183 8.61109 8.44113 8.85415 8.23975 9.06248C8.03836 9.27081 7.79183 9.37498 7.50016 9.37498ZM10.0002 12.7083C9.72238 12.7083 9.47933 12.6041 9.271 12.3958C9.06266 12.1875 8.9585 11.9444 8.9585 11.6666C8.9585 11.375 9.06266 11.1285 9.271 10.9271C9.47933 10.7257 9.72238 10.625 10.0002 10.625C10.2918 10.625 10.5384 10.7257 10.7397 10.9271C10.9411 11.1285 11.0418 11.375 11.0418 11.6666C11.0418 11.9444 10.9411 12.1875 10.7397 12.3958C10.5384 12.6041 10.2918 12.7083 10.0002 12.7083ZM10.0002 6.04165C9.72238 6.04165 9.47933 5.93748 9.271 5.72915C9.06266 5.52081 8.9585 5.27776 8.9585 4.99998C8.9585 4.70831 9.06266 4.46179 9.271 4.2604C9.47933 4.05901 9.72238 3.95831 10.0002 3.95831C10.2918 3.95831 10.5384 4.05901 10.7397 4.2604C10.9411 4.46179 11.0418 4.70831 11.0418 4.99998C11.0418 5.27776 10.9411 5.52081 10.7397 5.72915C10.5384 5.93748 10.2918 6.04165 10.0002 6.04165ZM12.5002 16.0416C12.2224 16.0416 11.9793 15.9375 11.771 15.7291C11.5627 15.5208 11.4585 15.2778 11.4585 15C11.4585 14.7083 11.5627 14.4618 11.771 14.2604C11.9793 14.059 12.2224 13.9583 12.5002 13.9583C12.7918 13.9583 13.0384 14.059 13.2397 14.2604C13.4411 14.4618 13.5418 14.7083 13.5418 15C13.5418 15.2778 13.4411 15.5208 13.2397 15.7291C13.0384 15.9375 12.7918 16.0416 12.5002 16.0416ZM12.5002 9.37498C12.2224 9.37498 11.9793 9.27081 11.771 9.06248C11.5627 8.85415 11.4585 8.61109 11.4585 8.33331C11.4585 8.04165 11.5627 7.79512 11.771 7.59373C11.9793 7.39234 12.2224 7.29165 12.5002 7.29165C12.7918 7.29165 13.0384 7.39234 13.2397 7.59373C13.4411 7.79512 13.5418 8.04165 13.5418 8.33331C13.5418 8.61109 13.4411 8.85415 13.2397 9.06248C13.0384 9.27081 12.7918 9.37498 12.5002 9.37498ZM15.0002 12.7083C14.7224 12.7083 14.4793 12.6041 14.271 12.3958C14.0627 12.1875 13.9585 11.9444 13.9585 11.6666C13.9585 11.375 14.0627 11.1285 14.271 10.9271C14.4793 10.7257 14.7224 10.625 15.0002 10.625C15.2918 10.625 15.5384 10.7257 15.7397 10.9271C15.9411 11.1285 16.0418 11.375 16.0418 11.6666C16.0418 11.9444 15.9411 12.1875 15.7397 12.3958C15.5384 12.6041 15.2918 12.7083 15.0002 12.7083ZM15.0002 6.04165C14.7224 6.04165 14.4793 5.93748 14.271 5.72915C14.0627 5.52081 13.9585 5.27776 13.9585 4.99998C13.9585 4.70831 14.0627 4.46179 14.271 4.2604C14.4793 4.05901 14.7224 3.95831 15.0002 3.95831C15.2918 3.95831 15.5384 4.05901 15.7397 4.2604C15.9411 4.46179 16.0418 4.70831 16.0418 4.99998C16.0418 5.27776 15.9411 5.52081 15.7397 5.72915C15.5384 5.93748 15.2918 6.04165 15.0002 6.04165Z" fill="#868092"/>
</svg>
