<svg width="20" height="20" viewBox="0 0 20 20" fill="none" xmlns="http://www.w3.org/2000/svg">
<path d="M9.75 17.9166C8.70944 17.9166 7.82431 17.5518 7.09458 16.8221C6.36486 16.0923 6 15.2072 6 14.1666C6 13.5321 6.14715 12.9439 6.44146 12.4023C6.7359 11.8606 7.14431 11.4124 7.66667 11.0577V4.16665C7.66667 3.58442 7.86833 3.09165 8.27167 2.68831C8.675 2.28498 9.16778 2.08331 9.75 2.08331C10.3322 2.08331 10.825 2.28498 11.2283 2.68831C11.6317 3.09165 11.8333 3.58442 11.8333 4.16665V11.0577C12.3557 11.4124 12.7641 11.8606 13.0585 12.4023C13.3528 12.9439 13.5 13.5321 13.5 14.1666C13.5 15.2072 13.1351 16.0923 12.4054 16.8221C11.6757 17.5518 10.7906 17.9166 9.75 17.9166ZM8.91667 9.32686H10.5833V8.28519H9.75V7.54811H10.5833V5.78519H9.75V5.04811H10.5833V4.16665C10.5833 3.93054 10.5035 3.73262 10.3438 3.5729C10.184 3.41317 9.98611 3.33331 9.75 3.33331C9.51389 3.33331 9.31597 3.41317 9.15625 3.5729C8.99653 3.73262 8.91667 3.93054 8.91667 4.16665V9.32686Z" fill="#868092"/>
</svg>
