<svg width="24" height="24" viewBox="0 0 24 24" fill="none" xmlns="http://www.w3.org/2000/svg">
<path d="M17.15 20.7L11.1 14.6C10.7667 14.7333 10.4292 14.8333 10.0875 14.9C9.74583 14.9667 9.38333 15 9 15C7.33333 15 5.91667 14.4167 4.75 13.25C3.58333 12.0833 3 10.6667 3 9C3 8.4 3.08333 7.82917 3.25 7.2875C3.41667 6.74583 3.65 6.23333 3.95 5.75L7.6 9.4L9.4 7.6L5.75 3.95C6.23333 3.65 6.74583 3.41667 7.2875 3.25C7.82917 3.08333 8.4 3 9 3C10.6667 3 12.0833 3.58333 13.25 4.75C14.4167 5.91667 15 7.33333 15 9C15 9.38333 14.9667 9.74583 14.9 10.0875C14.8333 10.4292 14.7333 10.7667 14.6 11.1L20.7 17.15C20.9 17.35 21 17.5917 21 17.875C21 18.1583 20.9 18.4 20.7 18.6L18.6 20.7C18.4 20.9 18.1583 21 17.875 21C17.5917 21 17.35 20.9 17.15 20.7Z" fill="currentColor"/>
</svg>
