<svg width="20" height="20" viewBox="0 0 20 20" fill="none" xmlns="http://www.w3.org/2000/svg">
<path d="M15.125 15H3.33337C2.63893 15 2.04865 14.7569 1.56254 14.2708C1.07643 13.7847 0.833374 13.1944 0.833374 12.5V7.5C0.833374 6.80556 1.07643 6.21528 1.56254 5.72917C2.04865 5.24306 2.63893 5 3.33337 5H14.1875C13.9098 5.22222 13.6667 5.47222 13.4584 5.75C13.25 6.02778 13.0764 6.33333 12.9375 6.66667H3.33337C3.09726 6.66667 2.89935 6.74653 2.73962 6.90625C2.5799 7.06597 2.50004 7.26389 2.50004 7.5V12.5C2.50004 12.7361 2.5799 12.934 2.73962 13.0938C2.89935 13.2535 3.09726 13.3333 3.33337 13.3333H14.1667C14.1945 13.6806 14.2952 13.9965 14.4688 14.2812C14.6424 14.566 14.8612 14.8056 15.125 15ZM16.6667 13.75C16.9028 13.75 17.1007 13.6701 17.2605 13.5104C17.4202 13.3507 17.5 13.1528 17.5 12.9167C17.5 12.6806 17.4202 12.4826 17.2605 12.3229C17.1007 12.1632 16.9028 12.0833 16.6667 12.0833C16.4306 12.0833 16.2327 12.1632 16.073 12.3229C15.9132 12.4826 15.8334 12.6806 15.8334 12.9167C15.8334 13.1528 15.9132 13.3507 16.073 13.5104C16.2327 13.6701 16.4306 13.75 16.6667 13.75ZM16.0834 11.2083H17.2709V10.7708C17.2709 10.6319 17.3056 10.5 17.375 10.375C17.4584 10.1944 17.566 10.0417 17.698 9.91667C17.8299 9.79167 17.9653 9.65972 18.1042 9.52083C18.3403 9.28472 18.5382 9.02778 18.698 8.75C18.8577 8.47222 18.9375 8.17361 18.9375 7.85417C18.9375 7.27083 18.7118 6.78819 18.2605 6.40625C17.8091 6.02431 17.2778 5.83333 16.6667 5.83333C16.1389 5.83333 15.6667 5.98611 15.25 6.29167C14.8334 6.59722 14.5556 7 14.4167 7.5L15.4792 7.9375C15.5625 7.65972 15.7118 7.43056 15.9271 7.25C16.1424 7.06944 16.3889 6.97917 16.6667 6.97917C16.9584 6.97917 17.2118 7.0625 17.4271 7.22917C17.6424 7.39583 17.75 7.61806 17.75 7.89583C17.75 8.13194 17.6806 8.34375 17.5417 8.53125C17.4028 8.71875 17.25 8.88889 17.0834 9.04167C16.9306 9.19444 16.7743 9.34375 16.6146 9.48958C16.4549 9.63542 16.3264 9.80556 16.2292 10C16.1459 10.1944 16.1007 10.3924 16.0938 10.5938C16.0868 10.7951 16.0834 11 16.0834 11.2083Z" fill="#868092"/>
</svg>
