<svg width="20" height="20" viewBox="0 0 20 20" fill="none" xmlns="http://www.w3.org/2000/svg">
<path d="M13.7821 18.1169V15.7692H12.0994L14.5513 11.8831V14.2308H16.234L13.7821 18.1169ZM6.95524 17.9167C6.74177 17.9167 6.56288 17.8445 6.41857 17.7C6.27413 17.5557 6.2019 17.3768 6.2019 17.1633V4.28689C6.2019 4.07341 6.27413 3.89452 6.41857 3.75022C6.56288 3.60591 6.74177 3.53376 6.95524 3.53376H8.46149V2.08334H11.5386V3.53376H13.0465C13.2601 3.53376 13.4388 3.60591 13.5825 3.75022C13.7263 3.89452 13.7982 4.07341 13.7982 4.28689V10.0802C12.5107 10.1636 11.4223 10.6718 10.5329 11.605C9.6435 12.5382 9.19878 13.6619 9.19878 14.976C9.19878 15.5294 9.28586 16.056 9.46003 16.556C9.63406 17.056 9.88246 17.5096 10.2052 17.9167H6.95524Z" fill="#868092"/>
</svg>
