<svg width="36" height="36" viewBox="0 0 36 36" fill="none" xmlns="http://www.w3.org/2000/svg">
<g clip-path="url(#clip0_154_1293)">
<path d="M22.6047 17.1626L8.37207 14.651V33.2093C8.37207 34.0565 9.05902 34.7442 9.90699 34.7442H34.4657C35.313 34.7442 36.0007 34.0573 36.0007 33.2093V26.3721L22.6047 17.1626Z" fill="#185C37"/>
<path d="M22.6047 1.2558H9.90699C9.05973 1.2558 8.37207 1.94275 8.37207 2.79072V9.62791L22.6047 18L30.1394 20.5116L36 18V9.62791L22.6047 1.2558Z" fill="#21A366"/>
<path d="M8.37207 9.62787H22.6047V18H8.37207V9.62787Z" fill="#107C41"/>
<path opacity="0.1" d="M18.5582 7.95374H8.37207V28.8837H18.5582C19.4048 28.8808 20.0904 28.1953 20.0932 27.3487V9.48795C20.0904 8.64139 19.4048 7.95655 18.5582 7.95374Z" fill="black"/>
<path opacity="0.2" d="M17.7215 8.79047H8.37207V29.7211H17.7215C18.5681 29.7183 19.2536 29.0327 19.2564 28.1862V10.3254C19.2529 9.47883 18.5674 8.79328 17.7215 8.79047Z" fill="black"/>
<path opacity="0.2" d="M17.7215 8.79047H8.37207V28.0462H17.7215C18.5681 28.0434 19.2536 27.3579 19.2564 26.5113V10.3254C19.2529 9.47883 18.5674 8.79328 17.7215 8.79047Z" fill="black"/>
<path opacity="0.2" d="M16.8841 8.79047H8.37207V28.0462H16.8841C17.7307 28.0434 18.4162 27.3579 18.419 26.5113V10.3254C18.4155 9.47883 17.7307 8.79328 16.8841 8.79047Z" fill="black"/>
<path d="M1.53492 8.79047H16.8841C17.7314 8.79047 18.4191 9.47742 18.4191 10.3254V25.6746C18.4191 26.5219 17.7321 27.2095 16.8841 27.2095H1.53492C0.686953 27.2095 0 26.5226 0 25.6746V10.3254C0 9.47742 0.686953 8.79047 1.53492 8.79047Z" fill="url(#paint0_linear_154_1293)"/>
<path d="M4.75293 22.988L7.98098 17.986L5.02293 13.0114H7.4023L9.01668 16.193C9.16574 16.4953 9.2677 16.7196 9.32324 16.868H9.34434C9.45051 16.6268 9.5623 16.3927 9.67902 16.1656L11.4045 13.0135H13.5891L10.5558 17.9585L13.6657 22.9887H11.3412L9.47652 19.497C9.38863 19.3486 9.3141 19.1925 9.25363 19.0308H9.22621C9.17137 19.189 9.09895 19.3409 9.01035 19.4829L7.09082 22.9894L4.75293 22.988Z" fill="white"/>
<path d="M34.4648 1.2558H22.6045V9.62791H35.9997V2.79072C35.9997 1.94275 35.3128 1.2558 34.4648 1.2558Z" fill="#33C481"/>
<path d="M22.6045 18H35.9997V26.3721H22.6045V18Z" fill="#107C41"/>
</g>
<defs>
<linearGradient id="paint0_linear_154_1293" x1="3.19968" y1="7.59158" x2="15.2189" y2="28.4084" gradientUnits="userSpaceOnUse">
<stop stop-color="#18884F"/>
<stop offset="0.5" stop-color="#117E43"/>
<stop offset="1" stop-color="#0B6631"/>
</linearGradient>
<clipPath id="clip0_154_1293">
<rect width="36" height="36" fill="white"/>
</clipPath>
</defs>
</svg>
