<svg width="69" height="58" viewBox="0 0 69 58" fill="none" xmlns="http://www.w3.org/2000/svg">
<rect x="1.31836" y="2.63647" width="52.2804" height="11.6179" fill="#EAECEF"/>
<rect x="1.31836" y="16.5779" width="52.2804" height="11.6179" fill="#EAECEF"/>
<rect x="1.31836" y="30.5198" width="52.2804" height="11.6179" fill="#EAECEF"/>
<path d="M64.8534 54.7672L56.5038 46.4172C55.4987 47.247 54.3429 47.8964 53.0364 48.3655C51.7298 48.8345 50.3782 49.069 48.9816 49.069C45.546 49.069 42.6384 47.8795 40.2588 45.5006C37.8793 43.1218 36.6895 40.2149 36.6895 36.7801C36.6895 33.3456 37.8789 30.4377 40.2578 28.0565C42.6368 25.6756 45.5437 24.4851 48.9786 24.4851C52.4131 24.4851 55.321 25.6749 57.7023 28.0544C60.0832 30.434 61.2737 33.3415 61.2737 36.777C61.2737 38.2126 61.0328 39.5836 60.5511 40.8901C60.069 42.1966 59.4259 43.333 58.6219 44.2991L66.9716 52.6486L64.8534 54.7672ZM48.9816 46.0544C51.5715 46.0544 53.7652 45.1556 55.5626 43.3579C57.3602 41.5606 58.2591 39.367 58.2591 36.777C58.2591 34.1871 57.3602 31.9935 55.5626 30.1961C53.7652 28.3985 51.5715 27.4997 48.9816 27.4997C46.3916 27.4997 44.1979 28.3985 42.4006 30.1961C40.6029 31.9935 39.7041 34.1871 39.7041 36.777C39.7041 39.367 40.6029 41.5606 42.4006 43.3579C44.1979 45.1556 46.3916 46.0544 48.9816 46.0544Z" fill="#D70251"/>
</svg>
