<svg width="24" height="24" viewBox="0 0 24 24" fill="none" xmlns="http://www.w3.org/2000/svg">
<path d="M23.8209 11.181C22.8547 9.08568 21.4397 7.22849 19.6759 5.74097L22.7079 2.70897L21.2929 1.29297L17.9999 4.58297C16.1772 3.52869 14.1054 2.98207 11.9999 2.99997C4.49987 2.99997 1.05687 9.26097 0.178871 11.181C0.0610095 11.4383 0 11.718 0 12.001C0 12.284 0.0610095 12.5637 0.178871 12.821C1.14501 14.9163 2.56009 16.7734 4.32387 18.261L1.29287 21.293L2.70687 22.707L5.99987 19.417C7.82251 20.4713 9.89436 21.0179 11.9999 21C19.4999 21 22.9429 14.739 23.8209 12.819C23.9385 12.562 23.9994 12.2826 23.9994 12C23.9994 11.7173 23.9385 11.438 23.8209 11.181ZM5.99987 12C5.99798 10.8986 6.29979 9.81798 6.87213 8.87697C7.44447 7.93596 8.26518 7.17096 9.24404 6.66608C10.2229 6.1612 11.322 5.93598 12.4206 6.01517C13.5191 6.09436 14.5745 6.47491 15.4709 7.11497L14.0189 8.56697C13.4093 8.19937 12.7117 8.00345 11.9999 7.99997C10.939 7.99997 9.92159 8.4214 9.17144 9.17154C8.4213 9.92169 7.99987 10.9391 7.99987 12C8.00336 12.7118 8.19927 13.4094 8.56687 14.019L7.11487 15.471C6.38984 14.4588 5.99993 13.245 5.99987 12ZM11.9999 18C10.7548 17.9999 9.54104 17.61 8.52887 16.885L9.98087 15.433C10.5904 15.8006 11.2881 15.9965 11.9999 16C13.0607 16 14.0782 15.5785 14.8283 14.8284C15.5784 14.0782 15.9999 13.0608 15.9999 12C15.9964 11.2882 15.8005 10.5905 15.4329 9.98097L16.8849 8.52897C17.5249 9.42529 17.9055 10.4807 17.9847 11.5793C18.0639 12.6778 17.8386 13.7769 17.3338 14.7558C16.8289 15.7347 16.0639 16.5554 15.1229 17.1277C14.1819 17.7001 13.1013 18.0019 11.9999 18Z" fill="#8B8888"/>
</svg>
