<svg width="16" height="16" viewBox="0 0 16 16" fill="none" xmlns="http://www.w3.org/2000/svg">
<g clip-path="url(#clip0_202_3201)">
<path d="M10.6953 9.33374H5.30467C4.42854 9.3348 3.5886 9.68331 2.96908 10.3028C2.34957 10.9223 2.00106 11.7623 2 12.6384V16.0004H14V12.6384C13.9989 11.7623 13.6504 10.9223 13.0309 10.3028C12.4114 9.68331 11.5715 9.3348 10.6953 9.33374Z" fill="#8B8888"/>
<path d="M8 8C10.2091 8 12 6.20914 12 4C12 1.79086 10.2091 0 8 0C5.79086 0 4 1.79086 4 4C4 6.20914 5.79086 8 8 8Z" fill="#8B8888"/>
</g>
<defs>
<clipPath id="clip0_202_3201">
<rect width="16" height="16" fill="white"/>
</clipPath>
</defs>
</svg>
