<svg width="24" height="24" viewBox="0 0 24 24" fill="none" xmlns="http://www.w3.org/2000/svg">
<path d="M4.30775 17.7307C3.80258 17.7307 3.375 17.5557 3.025 17.2057C2.675 16.8557 2.5 16.4281 2.5 15.923V5.53846C2.5 5.0333 2.675 4.60571 3.025 4.25571C3.375 3.90571 3.80258 3.73071 4.30775 3.73071H19.6923C20.1974 3.73071 20.625 3.90571 20.975 4.25571C21.325 4.60571 21.5 5.0333 21.5 5.53846V15.923C21.5 16.4281 21.325 16.8557 20.975 17.2057C20.625 17.5557 20.1974 17.7307 19.6923 17.7307H4.30775ZM1.38475 20.2307V18.7307H22.6152V20.2307H1.38475Z" fill="currentColor"/>
</svg>
