<svg width="20" height="20" viewBox="0 0 20 20" fill="none" xmlns="http://www.w3.org/2000/svg">
<path d="M10 17.5C8.26819 17.5 6.79361 16.902 5.57625 15.7058C4.35875 14.5097 3.75 13.0536 3.75 11.3375C3.75 10.5185 3.91215 9.73508 4.23646 8.9873C4.56063 8.23938 5.00854 7.57591 5.58021 6.99688L10 2.66022L14.4198 6.99688C14.9915 7.57591 15.4394 8.23945 15.7635 8.98751C16.0878 9.73557 16.25 10.5195 16.25 11.3392C16.25 13.0564 15.6413 14.5125 14.4238 15.7075C13.2064 16.9025 11.7318 17.5 10 17.5ZM5 11.3413H15C15 10.6885 14.875 10.066 14.625 9.47376C14.375 8.88168 14.0139 8.36265 13.5417 7.91668L10 4.41668L6.45833 7.91668C5.98611 8.36265 5.625 8.88168 5.375 9.47376C5.125 10.066 5 10.6885 5 11.3413Z" fill="#868092"/>
</svg>
