<svg width="32" height="32" viewBox="0 0 32 32" fill="none" xmlns="http://www.w3.org/2000/svg">
<path d="M8 0.5H24C28.1421 0.5 31.5 3.85786 31.5 8V24C31.5 28.1421 28.1421 31.5 24 31.5H8C3.85786 31.5 0.5 28.1421 0.5 24V8C0.5 3.85786 3.85786 0.5 8 0.5Z" fill="#444242"/>
<path d="M8 0.5H24C28.1421 0.5 31.5 3.85786 31.5 8V24C31.5 28.1421 28.1421 31.5 24 31.5H8C3.85786 31.5 0.5 28.1421 0.5 24V8C0.5 3.85786 3.85786 0.5 8 0.5Z" stroke="#444242"/>
<g clip-path="url(#clip0_423_490)">
<path d="M24 14.6667V24H8V14.6667H24ZM24 13.3333V11.3333C24 10.8029 23.7893 10.2942 23.4142 9.91912C23.0391 9.54405 22.5304 9.33333 22 9.33333H20V8H18.6667V9.33333H13.3333V8H12V9.33333H10C9.46957 9.33333 8.96086 9.54405 8.58579 9.91912C8.21071 10.2942 8 10.8029 8 11.3333V13.3333H24ZM20 17.3333H18.6667V18.6667H20V17.3333ZM16.6667 17.3333H15.3333V18.6667H16.6667V17.3333ZM13.3333 17.3333H12V18.6667H13.3333V17.3333ZM20 20H18.6667V21.3333H20V20ZM16.6667 20H15.3333V21.3333H16.6667V20ZM13.3333 20H12V21.3333H13.3333V20Z" fill="white"/>
</g>
<defs>
<clipPath id="clip0_423_490">
<rect width="16" height="16" fill="white" transform="translate(8 8)"/>
</clipPath>
</defs>
</svg>
