<svg width="20" height="20" viewBox="0 0 20 20" fill="none" xmlns="http://www.w3.org/2000/svg">
<path d="M9.99995 18.8398L7.38286 16.25H3.74995V12.6171L1.16016 10L3.74995 7.38292V3.75001H7.38286L9.99995 1.16022L12.617 3.75001H16.2499V7.38292L18.8397 10L16.2499 12.6171V16.25H12.617L9.99995 18.8398ZM9.99995 13.846C11.064 13.846 11.971 13.471 12.721 12.721C13.471 11.971 13.846 11.064 13.846 10C13.846 8.93598 13.471 8.02897 12.721 7.27897C11.971 6.52897 11.064 6.15397 9.99995 6.15397C8.93592 6.15397 8.02891 6.52897 7.27891 7.27897C6.52891 8.02897 6.15391 8.93598 6.15391 10C6.15391 11.064 6.52891 11.971 7.27891 12.721C8.02891 13.471 8.93592 13.846 9.99995 13.846ZM9.99995 17.0833L12.0833 15H14.9999V12.0833L17.0833 10L14.9999 7.91667V5.00001H12.0833L9.99995 2.91668L7.91661 5.00001H4.99995V7.91667L2.91661 10L4.99995 12.0833V15H7.91661L9.99995 17.0833Z" fill="#868092"/>
</svg>
