<svg width="24" height="24" viewBox="0 0 24 24" fill="none" xmlns="http://www.w3.org/2000/svg">
<path d="M7.375 7.5123H16.625L18.625 3H5.375L7.375 7.5123ZM8.4 21H15.6C17.1 21 18.375 20.4792 19.425 19.4375C20.475 18.3958 21 17.1167 21 15.6C21 14.9667 20.8917 14.35 20.675 13.75C20.4583 13.15 20.15 12.6083 19.75 12.125L17.15 9H6.85L4.25 12.125C3.85 12.6083 3.54167 13.15 3.325 13.75C3.10833 14.35 3 14.9667 3 15.6C3 17.1167 3.52083 18.3958 4.5625 19.4375C5.60417 20.4792 6.88333 21 8.4 21Z" fill="currentColor"/>
</svg>
