<svg width="16" height="16" viewBox="0 0 16 16" fill="none" xmlns="http://www.w3.org/2000/svg">
<g clip-path="url(#clip0_303_561)">
<path d="M2.71211 12H13.1494C13.4707 12 13.7872 11.9226 14.0722 11.7745C14.3572 11.6263 14.6023 11.4116 14.7868 11.1486C14.9712 10.8857 15.0897 10.5822 15.132 10.2637C15.1744 9.94532 15.1394 9.62138 15.0301 9.31933L13.1288 4.06267C12.8041 2.89447 12.1056 1.86479 11.1403 1.13111C10.175 0.397433 8.99593 0.000141386 7.78345 6.78207e-10V6.78207e-10C6.52126 -1.97282e-05 5.29681 0.430392 4.31225 1.22017C3.3277 2.00995 2.64191 3.11187 2.36811 4.344L0.801446 9.41067C0.709206 9.7098 0.68847 10.0264 0.740906 10.335C0.793341 10.6436 0.917485 10.9356 1.10335 11.1875C1.28921 11.4394 1.5316 11.6441 1.81102 11.7852C2.09044 11.9264 2.39908 11.9999 2.71211 12Z" fill="#8B8888"/>
<path d="M4.73315 13.3333C4.88616 14.0868 5.29497 14.7643 5.89032 15.2509C6.48566 15.7375 7.23092 16.0033 7.99982 16.0033C8.76872 16.0033 9.51399 15.7375 10.1093 15.2509C10.7047 14.7643 11.1135 14.0868 11.2665 13.3333H4.73315Z" fill="#8B8888"/>
</g>
<defs>
<clipPath id="clip0_303_561">
<rect width="16" height="16" fill="white"/>
</clipPath>
</defs>
</svg>
