<svg width="20" height="20" viewBox="0 0 20 20" fill="none" xmlns="http://www.w3.org/2000/svg">
<path d="M2.08325 17.5321V3.5898C2.08325 3.16883 2.22909 2.81251 2.52075 2.52084C2.81242 2.22918 3.16874 2.08334 3.58971 2.08334H16.4101C16.8311 2.08334 17.1874 2.22918 17.4791 2.52084C17.7708 2.81251 17.9166 3.16883 17.9166 3.5898V13.0769C17.9166 13.4979 17.7708 13.8542 17.4791 14.1458C17.1874 14.4375 16.8311 14.5833 16.4101 14.5833H5.032L2.08325 17.5321ZM9.99992 12.2596C10.1906 12.2596 10.3505 12.1951 10.4795 12.0661C10.6085 11.937 10.673 11.7772 10.673 11.5865C10.673 11.3958 10.6085 11.2359 10.4795 11.1069C10.3505 10.978 10.1906 10.9136 9.99992 10.9136C9.80923 10.9136 9.64936 10.978 9.52034 11.1069C9.39131 11.2359 9.32679 11.3958 9.32679 11.5865C9.32679 11.7772 9.39131 11.937 9.52034 12.0661C9.64936 12.1951 9.80923 12.2596 9.99992 12.2596ZM9.37492 9.35897H10.6249V4.32688H9.37492V9.35897Z" fill="#868092"/>
</svg>
