<svg width="24" height="24" viewBox="0 0 24 24" fill="none" xmlns="http://www.w3.org/2000/svg">
<g clip-path="url(#clip0_266_1475)">
<path d="M22 15.9994V20.9994C22 21.2646 21.8946 21.519 21.7071 21.7065C21.5196 21.894 21.2652 21.9994 21 21.9994H3C2.73478 21.9994 2.48043 21.894 2.29289 21.7065C2.10536 21.519 2 21.2646 2 20.9994V15.9994H0V20.9994C0 21.795 0.31607 22.5581 0.87868 23.1207C1.44129 23.6833 2.20435 23.9994 3 23.9994H21C21.7956 23.9994 22.5587 23.6833 23.1213 23.1207C23.6839 22.5581 24 21.795 24 20.9994V15.9994H22Z" fill="currentColor"/>
<path d="M11.9658 18.9997C12.3596 19.0008 12.7498 18.9242 13.1139 18.7742C13.4781 18.6242 13.809 18.4039 14.0878 18.1257L18.0068 14.2067L16.5928 12.7927L12.9588 16.4257L12.9328 -0.000256028L10.9328 -0.000256203L10.9588 16.4117L7.33984 12.7927L5.92584 14.2067L9.84484 18.1257C10.1235 18.4038 10.4542 18.6242 10.8182 18.7742C11.1822 18.9242 11.5722 19.0008 11.9658 18.9997Z" fill="currentColor"/>
</g>
<defs>
<clipPath id="clip0_266_1475">
<rect width="24" height="24" fill="white"/>
</clipPath>
</defs>
</svg>
