<svg width="20" height="20" viewBox="0 0 20 20" fill="none" xmlns="http://www.w3.org/2000/svg">
<path d="M5.56285 5.69457H14.4368L16.3555 1.36572H3.64416L5.56285 5.69457ZM6.54617 18.6339H13.4534C14.8925 18.6339 16.1156 18.1342 17.1229 17.1349C18.1302 16.1356 18.6339 14.9084 18.6339 13.4534C18.6339 12.8459 18.53 12.2543 18.3221 11.6787C18.1142 11.1031 17.8184 10.5834 17.4347 10.1197L14.9404 7.12178H5.05919L2.5649 10.1197C2.18116 10.5834 1.88537 11.1031 1.67751 11.6787C1.46965 12.2543 1.36572 12.8459 1.36572 13.4534C1.36572 14.9084 1.86538 16.1356 2.8647 17.1349C3.86401 18.1342 5.09117 18.6339 6.54617 18.6339Z" fill="#8B8888"/>
</svg>
